<svg width="429" height="167" viewBox="0 0 429 167" fill="none" xmlns="http://www.w3.org/2000/svg">
<path d="M7.92226 59.5907C8.81736 50.1253 16.7414 42.8795 26.249 42.8326L406.112 40.9615C417.054 40.9076 425.651 50.31 424.621 61.203L420.463 105.174C419.571 114.604 411.701 121.837 402.229 121.931L22.1855 125.711C11.2073 125.82 2.55007 116.4 3.58367 105.47L7.92226 59.5907Z" stroke="#FFE81F" stroke-width="3"/>
<path d="M45.4639 92.4H36.7519L34.4839 96H25.6999L39.6679 72.528H53.3479L54.0679 96H45.6439L45.4639 92.4ZM40.3879 86.136H45.3199L44.9239 78.72L40.3879 86.136ZM85.7935 79.98L85.9015 79.584C85.9975 79.368 86.0455 79.08 86.0455 78.72C86.1175 77.952 86.0335 77.196 85.7935 76.452C85.5775 75.708 85.2295 75.048 84.7495 74.472C84.2935 73.896 83.7175 73.428 83.0215 73.068C82.3495 72.708 81.6055 72.528 80.7895 72.528H62.6095L55.9855 96H74.1655C75.0535 96 75.9775 95.796 76.9375 95.388C77.9215 94.956 78.8455 94.404 79.7095 93.732C80.5735 93.036 81.3295 92.28 81.9775 91.464C82.6255 90.624 83.0695 89.784 83.3095 88.944L83.4175 88.512C83.4415 88.416 83.4655 88.308 83.4895 88.188C83.5135 88.068 83.5375 87.936 83.5615 87.792C83.6335 87.072 83.5615 86.388 83.3455 85.74C83.1535 85.092 82.9135 84.528 82.6255 84.048C83.2255 83.592 83.8375 83.004 84.4615 82.284C85.1095 81.54 85.5535 80.772 85.7935 79.98ZM69.1615 79.584H75.4255C75.9775 79.584 76.3855 79.632 76.6495 79.728C76.9135 79.8 77.0215 79.968 76.9735 80.232L76.9015 80.448C76.8295 80.712 76.6615 80.904 76.3975 81.024C76.1335 81.144 75.6535 81.204 74.9575 81.204H68.6935L69.1615 79.584ZM66.9655 87.324H73.2295C73.8535 87.324 74.2735 87.36 74.4895 87.432C74.7295 87.504 74.8375 87.66 74.8135 87.9C74.7895 87.996 74.7655 88.068 74.7415 88.116C74.7415 88.14 74.7415 88.152 74.7415 88.152C74.6455 88.416 74.4655 88.62 74.2015 88.764C73.9615 88.884 73.5055 88.944 72.8335 88.944H66.5695L66.9655 87.324ZM97.6892 96.18C95.7932 96.18 94.1132 96.012 92.6492 95.676C91.1852 95.34 89.9612 94.812 88.9772 94.092C88.0172 93.348 87.3212 92.412 86.8892 91.284C86.4572 90.132 86.3252 88.74 86.4932 87.108C86.5652 86.268 86.7452 85.344 87.0332 84.336V84.264C87.6332 82.152 88.4732 80.352 89.5532 78.864C90.6332 77.352 91.9172 76.128 93.4052 75.192C94.8932 74.232 96.5612 73.536 98.4092 73.104C100.257 72.648 102.249 72.42 104.385 72.42C106.257 72.42 107.925 72.588 109.389 72.924C110.877 73.26 112.113 73.788 113.097 74.508C114.081 75.228 114.801 76.152 115.257 77.28C115.713 78.408 115.857 79.776 115.689 81.384C115.641 81.84 115.557 82.308 115.437 82.788C115.341 83.244 115.221 83.736 115.077 84.264V84.336C114.453 86.472 113.589 88.296 112.485 89.808C111.405 91.296 110.121 92.52 108.633 93.48C107.145 94.416 105.477 95.1 103.629 95.532C101.781 95.964 99.8012 96.18 97.6892 96.18ZM102.405 79.404C101.349 79.404 100.449 79.512 99.7052 79.728C98.9612 79.944 98.3252 80.268 97.7972 80.7C97.2932 81.108 96.8732 81.612 96.5372 82.212C96.2252 82.812 95.9612 83.496 95.7452 84.264V84.336C95.6252 84.672 95.5292 85.176 95.4572 85.848C95.3372 86.904 95.5892 87.72 96.2132 88.296C96.8372 88.872 98.0012 89.16 99.7052 89.16C101.721 89.16 103.221 88.74 104.205 87.9C105.213 87.06 105.933 85.872 106.365 84.336V84.264C106.461 84.024 106.521 83.784 106.545 83.544C106.593 83.304 106.629 83.064 106.653 82.824C106.773 81.744 106.509 80.904 105.861 80.304C105.237 79.704 104.085 79.404 102.405 79.404ZM137.602 72.528L134.218 84.48C133.834 85.848 133.246 86.892 132.454 87.612C131.686 88.332 130.522 88.776 128.962 88.944C127.738 88.824 126.886 88.512 126.406 88.008C125.926 87.48 125.746 86.748 125.866 85.812C125.89 85.62 125.914 85.416 125.938 85.2C125.986 84.96 126.058 84.72 126.154 84.48L129.538 72.528H120.934L117.586 84.444C117.418 84.996 117.286 85.512 117.19 85.992C117.094 86.472 117.022 86.94 116.974 87.396C116.83 88.884 116.95 90.168 117.334 91.248C117.718 92.304 118.342 93.18 119.206 93.876C120.07 94.572 121.15 95.1 122.446 95.46C123.742 95.796 125.242 96 126.946 96.072C128.938 96 130.774 95.736 132.454 95.28C134.158 94.824 135.682 94.14 137.026 93.228C138.37 92.292 139.534 91.104 140.518 89.664C141.502 88.224 142.282 86.484 142.858 84.444L146.206 72.528H137.602ZM148.813 72.528H172.537L170.521 79.584H162.925L158.317 96H149.785L154.393 79.584H146.797L148.813 72.528ZM181.177 96L187.801 72.528H196.333L191.725 88.944H201.013L198.997 96H181.177ZM220.683 92.4H211.971L209.703 96H200.919L214.887 72.528H228.567L229.287 96H220.863L220.683 92.4ZM215.607 86.136H220.539L220.143 78.72L215.607 86.136ZM231.204 96H248.412C249.084 96 249.732 95.88 250.356 95.64C251.004 95.4 251.592 95.064 252.12 94.632C252.672 94.2 253.14 93.696 253.524 93.12C253.932 92.544 254.232 91.908 254.424 91.212C254.472 90.972 254.52 90.744 254.568 90.528C254.616 90.312 254.652 90.096 254.676 89.88C254.772 88.92 254.688 88.008 254.424 87.144C254.16 86.28 253.788 85.44 253.308 84.624C252.852 83.784 252.336 82.956 251.76 82.14C251.184 81.324 250.632 80.472 250.104 79.584H260.292L262.308 72.528H246.936C246.24 72.528 245.544 72.672 244.848 72.96C244.152 73.224 243.492 73.596 242.868 74.076C242.268 74.556 241.728 75.132 241.248 75.804C240.792 76.452 240.456 77.16 240.24 77.928C240.12 78.216 240.048 78.48 240.024 78.72V79.008C240 79.944 240.144 80.856 240.456 81.744C240.792 82.632 241.2 83.496 241.68 84.336C242.184 85.152 242.724 85.944 243.3 86.712C243.876 87.48 244.404 88.224 244.884 88.944H233.22L231.204 96ZM281.459 87.36H269.219L268.823 88.944H282.035L280.019 96H258.275L264.899 72.528H286.643L284.627 79.584H271.415L270.983 81.168H283.223L281.459 87.36ZM291.135 96H282.603L289.227 72.528H307.479C308.151 72.528 308.775 72.696 309.351 73.032C309.951 73.368 310.467 73.812 310.899 74.364C311.331 74.892 311.655 75.504 311.871 76.2C312.087 76.872 312.159 77.568 312.087 78.288C312.063 78.432 312.039 78.576 312.015 78.72C311.991 78.864 311.955 79.008 311.907 79.152L311.295 81.24C311.055 82.08 310.707 82.896 310.251 83.688C309.819 84.48 309.267 85.212 308.595 85.884C307.947 86.556 307.191 87.156 306.327 87.684C305.463 88.212 304.491 88.632 303.411 88.944H312.987L310.971 96H297.183C296.535 95.928 295.959 95.652 295.455 95.172C294.951 94.668 294.519 94.068 294.159 93.372C293.823 92.676 293.559 91.944 293.367 91.176C293.175 90.384 293.079 89.664 293.079 89.016L291.135 96ZM294.951 82.428H299.847C300.639 82.428 301.251 82.32 301.683 82.104C302.139 81.888 302.463 81.528 302.655 81.024V80.808C302.751 79.992 302.079 79.584 300.639 79.584H295.743L294.951 82.428ZM332.856 72.528H356.796L354.78 79.584H347.076L342.468 96H333.936L338.544 79.584H330.84L332.856 72.528ZM368.058 92.4H359.346L357.078 96H348.294L362.262 72.528H375.942L376.662 96H368.238L368.058 92.4ZM362.982 86.136H367.914L367.518 78.72L362.982 86.136ZM395.546 79.548H406.274L408.254 72.528H396.914C394.802 72.528 392.834 72.744 391.01 73.176C389.186 73.584 387.542 74.256 386.078 75.192C384.614 76.104 383.342 77.304 382.262 78.792C381.206 80.28 380.39 82.08 379.814 84.192V84.336C379.526 85.368 379.346 86.328 379.274 87.216C379.106 88.8 379.226 90.156 379.634 91.284C380.066 92.388 380.762 93.288 381.722 93.984C382.682 94.68 383.882 95.196 385.322 95.532C386.762 95.844 388.418 96 390.29 96H401.63L405.266 83.148H396.734L395.114 88.944H391.55C390.182 88.824 389.258 88.5 388.778 87.972C388.298 87.42 388.118 86.664 388.238 85.704C388.262 85.512 388.286 85.308 388.31 85.092C388.358 84.852 388.43 84.6 388.526 84.336L388.562 84.228C388.994 82.692 389.75 81.528 390.83 80.736C391.934 79.944 393.506 79.548 395.546 79.548Z" fill="#FFE81F"/>
</svg>
