<svg width="330" height="46" viewBox="0 0 330 46" fill="none" xmlns="http://www.w3.org/2000/svg">
<path d="M9.91797 42.9219V44.4219H11.418H41.3924H43.4648H45.6523H47.1523H57.6289H58.6931L59.0447 43.4174L61.1814 37.3125H70.7834L72.9202 43.4174L73.2717 44.4219H74.3359H85.6055H87.1055H89.2656H91.349H108.105H108.23L108.352 44.4015C111.385 43.896 113.865 42.8356 115.609 41.0808C117.379 39.2994 118.239 36.9555 118.3 34.2054C118.424 28.6655 115.134 23.2442 109.094 17.9501L109.079 17.9364L109.063 17.9232C108.505 17.461 108.123 17.0856 107.876 16.795C108.377 16.7066 109.117 16.6628 110.137 16.6946L110.16 16.6953H110.184H118.309V42.9219V44.4219H119.809H155.496H156.996H158.496H171.27H172.77V42.9219V33.6069L182.711 43.9608L183.154 44.4219H183.793H199.379H200.879V42.9219V31.1641V29.6641H199.379H188.297L187.181 28.238C189.354 27.5478 191.173 26.6681 192.589 25.5668C194.45 24.1194 195.776 22.296 196.531 20.1157C197.321 17.8334 197.219 14.8114 196.472 11.2253L196.445 11.0924L196.394 10.9667C195.337 8.36471 193.654 6.26745 191.362 4.71191C189.058 3.14857 186.189 2.25211 182.837 1.9438L182.768 1.9375H182.699H156.996H155.496V3.4375V29.6641H134.16V28.125H146.223H147.723V26.625V19.7344V18.2344H146.223H134.16V16.6953H153.66H155.16V15.1953V3.4375V1.9375H153.66H121.309H119.809H118.309H98.2617C95.5063 1.9375 93.1317 2.60888 91.297 4.10796C89.4604 5.60865 88.3415 7.79432 87.8204 10.4799C86.7173 16.1651 89.9271 22.0221 96.3714 27.9479L96.4139 27.987L96.4592 28.0226C97.2559 28.6494 97.7741 29.1476 98.0782 29.5203C97.5272 29.6372 96.6735 29.699 95.4604 29.6647L95.4392 29.6641H95.418H87.1055H86.4127L77.4811 2.96168L77.1385 1.9375H76.0586H56.4531H55.3675L55.0282 2.96879L46.2469 29.6641H45.6523H25.7695V3.4375V1.9375H24.2695H3.21484H1.71484V3.4375V15.1953V16.6953H3.21484H9.91797V42.9219ZM107.543 16.3075C107.544 16.3077 107.547 16.3139 107.55 16.3255C107.545 16.3131 107.543 16.3072 107.543 16.3075ZM98.3645 29.9585C98.3637 29.9582 98.3604 29.9503 98.3569 29.9355C98.3636 29.9513 98.3653 29.9587 98.3645 29.9585ZM181.892 15.2072L181.911 15.2217L181.93 15.2355C182.004 15.2886 182.337 15.6531 182.428 17.0282C182.409 17.7068 182.329 18.1699 182.232 18.4642C182.177 18.631 182.129 18.707 182.109 18.7334C181.667 18.9981 181.381 19.0547 181.223 19.0547H172.77V14.7812H181.173C181.188 14.7849 181.23 14.7967 181.303 14.8298C181.438 14.8918 181.634 15.0075 181.892 15.2072ZM69.4372 26.3281H62.7748L66.2399 16.7529L69.4372 26.3281Z" fill="black" stroke="#FFE81F" strokeWidth="3"/>
<path d="M253.277 3.875V15.6328H240.754V43.3594H227.902V15.6328H215.379V3.875H253.277Z" fill="white"/>
<path d="M269.602 12.625L263.941 28.2656H274.824L269.602 12.625ZM246.223 15.6328V3.875H279.363L292.57 43.3594H277.641L275.152 36.25H263.422L260.934 43.3594H246.77L255.875 15.6328H246.223Z" fill="white"/>
<path d="M317.781 31.6016V23.6172H329.785V43.3594H312.805C308.648 43.3594 304.884 42.6029 301.512 41.0898C298.158 39.5586 295.514 37.2708 293.582 34.2266C291.65 31.1823 290.684 27.4544 290.684 23.043C290.684 19.944 291.258 17.1823 292.406 14.7578C293.573 12.3151 295.177 10.2917 297.219 8.6875C299.279 7.0651 301.357 5.77083 303.453 4.80469C305.549 3.82031 308.639 3.21875 312.723 3C316.952 3.21875 320.178 3.72917 322.402 4.53125C324.626 5.33333 326.868 6.79167 329.129 8.90625L321.363 17.5469C320.051 16.4531 318.884 15.6693 317.863 15.1953C316.842 14.7214 315.165 14.4115 312.832 14.2656C310.572 14.5573 308.913 15.0495 307.855 15.7422C306.798 16.4349 305.868 17.3281 305.066 18.4219C304.264 19.5156 303.754 21.1927 303.535 23.4531C303.754 25.7135 304.264 27.2995 305.066 28.2109C305.868 29.1224 306.871 29.8698 308.074 30.4531C309.277 31.0365 310.572 31.401 311.957 31.5469C313.342 31.6927 315.284 31.7109 317.781 31.6016Z" fill="white"/>
</svg>
