<svg width="418" height="128" viewBox="0 0 418 128" fill="none" xmlns="http://www.w3.org/2000/svg">
<path d="M18.1676 41.3057L396.168 3.68055C407.055 2.59681 416.5 11.148 416.5 22.0896V66.2563C416.5 75.7284 409.345 83.6705 399.925 84.656L21.9248 124.198C11.0056 125.341 1.5 116.777 1.5 105.799V59.7147C1.5 50.2071 8.70672 42.2474 18.1676 41.3057Z" stroke="#FFE81F" stroke-width="3"/>
<path d="M38.4075 91.7197C36.5219 91.9181 34.8336 91.9267 33.3425 91.7457C31.8513 91.5647 30.5788 91.1677 29.5249 90.5546C28.4923 89.9151 27.7022 89.057 27.1546 87.9804C26.6045 86.8799 26.3276 85.5094 26.3239 83.8687C26.3076 83.0258 26.39 82.0881 26.571 81.0555L26.5634 80.9838C26.9392 78.8207 27.5863 76.9427 28.5047 75.3499C29.4206 73.7332 30.5695 72.3816 31.9514 71.295C33.3308 70.1846 34.9169 69.318 36.7095 68.695C38.4997 68.0482 40.4569 67.613 42.5812 67.3896C44.4429 67.1938 46.1193 67.1863 47.6105 67.3673C49.1254 67.5458 50.4099 67.9416 51.4638 68.5547C52.5177 69.1679 53.3305 70.0115 53.902 71.0856C54.4735 72.1597 54.7598 73.5051 54.7609 75.1219C54.7609 75.5804 54.7263 76.0546 54.6572 76.5445C54.6094 77.0081 54.5415 77.5099 54.4536 78.0501L54.4611 78.1217C54.064 80.3112 53.3955 82.2156 52.4558 83.8348C51.5373 85.4276 50.3884 86.7792 49.009 87.8896C47.6271 88.9762 46.0398 89.8309 44.2472 90.4539C42.4545 91.0768 40.5079 91.4988 38.4075 91.7197ZM41.3427 74.5424C40.2925 74.6529 39.4087 74.8544 38.6914 75.1471C37.9741 75.4397 37.3754 75.8285 36.8955 76.3133C36.437 76.7718 36.072 77.317 35.8006 77.9489C35.5531 78.5782 35.3621 79.2861 35.2276 80.0725L35.2352 80.1441C35.151 80.4908 35.1082 81.0021 35.1069 81.6779C35.098 82.7407 35.434 83.5258 36.1149 84.0334C36.7957 84.5409 37.9834 84.7056 39.6781 84.5273C41.683 84.3164 43.1309 83.7418 44.0216 82.8035C44.9362 81.8626 45.5279 80.6058 45.7969 79.0331L45.7894 78.9615C45.8597 78.7127 45.8943 78.4678 45.8931 78.2266C45.9157 77.9829 45.9264 77.7404 45.9251 77.4992C45.9315 76.4126 45.5811 75.6048 44.8739 75.0759C44.1905 74.5445 43.0135 74.3667 41.3427 74.5424ZM65.2468 78.2179C65.1965 78.6576 65.1689 79.0828 65.1638 79.4936C65.1575 80.1217 65.3069 80.6248 65.6122 81.0029C65.9149 81.3572 66.5078 81.4879 67.3909 81.395L70.1477 81.105C70.7206 81.0448 71.2011 80.9098 71.5893 80.7C71.9749 80.4664 72.2827 80.1806 72.5126 79.8427C72.7664 79.5023 72.9555 79.1204 73.0799 78.6971C73.2043 78.2737 73.3023 77.829 73.374 77.363L75.6983 64.0146L84.2193 63.1183L81.2521 80.3351C81.1176 81.1215 80.7696 81.9424 80.208 82.7979C79.6464 83.6533 78.9818 84.4472 78.2142 85.1795C77.468 85.8855 76.6627 86.489 75.7984 86.9902C74.958 87.4888 74.1916 87.7746 73.4995 87.8474L61.5056 89.109C60.8612 89.1768 60.2111 89.0763 59.5554 88.8074C58.921 88.5121 58.3363 88.1151 57.8012 87.6164C57.2874 87.0912 56.8628 86.4964 56.5275 85.8318C56.1896 85.1434 56.0188 84.4374 56.0151 83.7138C56.0264 83.5919 56.0377 83.4701 56.049 83.3482C56.0604 83.2264 56.0717 83.1045 56.083 82.9827L59.0502 65.7658L67.5711 64.8695L65.2468 78.2179ZM91.1641 85.9892L82.6789 86.8818L86.8111 62.8456L104.963 60.9362C105.631 60.8659 106.269 60.9677 106.877 61.2416C107.509 61.513 108.069 61.9006 108.556 62.4044C109.041 62.8843 109.427 63.459 109.715 64.1286C110 64.7743 110.144 65.459 110.148 66.1826C110.139 66.3283 110.131 66.474 110.122 66.6197C110.113 66.7655 110.092 66.9124 110.06 67.0607L109.669 69.2012C109.519 70.0617 109.258 70.9097 108.887 71.745C108.54 72.5779 108.068 73.3636 107.47 74.1022C106.896 74.8383 106.207 75.5141 105.403 76.1296C104.599 76.7451 103.676 77.2645 102.635 77.6877L112.158 76.6859L110.891 83.9141L97.1789 85.3565C96.5269 85.3527 95.9252 85.1385 95.3737 84.7139C94.8198 84.2653 94.3274 83.7138 93.8965 83.0593C93.4896 82.4023 93.1505 81.7019 92.8792 80.9582C92.6054 80.1906 92.4346 79.4846 92.3668 78.8402L91.1641 85.9892ZM93.5393 72.0925L98.4085 71.5803C99.1961 71.4975 99.7934 71.326 100.2 71.066C100.631 70.8035 100.916 70.4116 101.054 69.8903L101.032 69.6755C101.042 68.8539 100.331 68.5184 98.8986 68.6691L94.0294 69.1813L93.5393 72.0925ZM134.554 81.4251L126.068 82.3176L130.201 58.2815L148.281 56.3796C149.092 56.2942 149.851 56.3954 150.557 56.6831C151.287 56.9684 151.91 57.3855 152.426 57.9345C152.966 58.481 153.383 59.1129 153.675 59.8302C153.992 60.545 154.155 61.2881 154.163 62.0594C154.154 62.2051 154.146 62.3508 154.137 62.4966C154.152 62.6398 154.143 62.7855 154.11 62.9337L153.585 65.8487C153.453 66.659 153.098 67.5289 152.52 68.4584C151.963 69.3616 151.28 70.2058 150.469 70.9908C149.659 71.7759 148.788 72.4467 147.858 73.0031C146.948 73.5332 146.076 73.8421 145.24 73.93L135.645 74.9393L134.554 81.4251ZM136.887 67.8223L142.652 67.216C143.535 67.1231 144.13 66.9278 144.436 66.6301C144.766 66.3299 145.001 65.9191 145.139 65.3978L145.173 65.0322C145.181 64.6453 145.054 64.357 144.792 64.1673C144.531 63.9776 143.995 63.9254 143.183 64.0108L137.419 64.6171L136.887 67.8223ZM169.211 74.1596L160.547 75.0709L158.668 78.8885L149.932 79.8074L161.368 55.0029L174.973 53.5718L178.145 76.8397L169.767 77.721L169.211 74.1596ZM163.508 68.4609L168.413 67.945L167.243 60.6111L163.508 68.4609ZM180.052 76.6391L197.165 74.8389C197.834 74.7686 198.466 74.5815 199.061 74.2775C199.68 73.9711 200.23 73.5754 200.71 73.0905C201.214 72.6032 201.626 72.053 201.948 71.4399C202.294 70.8244 202.525 70.1605 202.644 69.4483C202.666 69.2046 202.69 68.9728 202.715 68.753C202.74 68.5331 202.754 68.3145 202.755 68.0972C202.75 67.1324 202.571 66.2342 202.218 65.4026C201.865 64.5709 201.407 63.7745 200.844 63.0132C200.303 62.2255 199.703 61.456 199.045 60.7047C198.387 59.9535 197.749 59.1639 197.131 58.336L207.263 57.2702L208.53 50.042L193.242 51.6501C192.55 51.7229 191.873 51.939 191.211 52.2982C190.546 52.6335 189.929 53.0726 189.358 53.6152C188.812 54.1553 188.335 54.7847 187.928 55.5032C187.542 56.1953 187.282 56.9346 187.148 57.721C187.058 58.02 187.014 58.29 187.016 58.5312L187.046 58.8177C187.12 59.751 187.358 60.643 187.762 61.4935C188.189 62.3414 188.685 63.158 189.25 63.9432C189.837 64.702 190.457 65.4331 191.11 66.1367C191.763 66.8402 192.366 67.5249 192.919 68.1907L181.319 69.4109L180.052 76.6391ZM211.106 49.771L234.7 47.2892L233.433 54.5174L225.878 55.312L223.013 72.12L214.528 73.0126L217.393 56.2046L209.839 56.9992L211.106 49.771ZM267.901 58.7106L255.728 59.991L255.5 61.6078L268.639 60.2256L267.373 67.4538L245.748 69.7285L249.88 45.6923L271.505 43.4176L270.238 50.6458L257.099 52.028L256.835 53.6485L269.007 52.368L267.901 58.7106ZM284.049 58.8218L292.119 41.2492L300.855 40.3303L289.419 65.1347L276.566 66.4867L273.395 43.2189L281.772 42.3376L284.049 58.8218ZM320.765 53.1497L308.593 54.4302L308.364 56.0469L321.504 54.6648L320.237 61.893L298.613 64.1677L302.745 40.1315L324.369 37.8568L323.103 45.085L309.963 46.4671L309.699 48.0876L321.872 46.8072L320.765 53.1497ZM347.976 58.9751L339.742 59.8413L333.174 49.7088L331.292 60.7301L322.807 61.6226L326.939 37.5865L335.21 36.7165L341.702 46.8207L343.623 35.8315L352.108 34.9389L347.976 58.9751ZM354.7 34.6663L378.294 32.1844L377.027 39.4126L369.473 40.2073L366.608 57.0153L358.122 57.9078L360.988 41.0998L353.433 41.8945L354.7 34.6663ZM372.63 56.3818L389.744 54.5816C390.412 54.5113 391.044 54.3241 391.639 54.0202C392.259 53.7137 392.808 53.318 393.288 52.8332C393.792 52.3458 394.205 51.7956 394.526 51.1826C394.872 50.5671 395.103 49.9032 395.222 49.1909C395.244 48.9472 395.268 48.7154 395.293 48.4956C395.318 48.2758 395.332 48.0572 395.333 47.8399C395.328 46.8751 395.149 45.9769 394.796 45.1452C394.443 44.3136 393.985 43.5171 393.423 42.7558C392.881 41.9681 392.281 41.1986 391.623 40.4474C390.965 39.6961 390.327 38.9065 389.709 38.0786L399.841 37.0128L401.108 29.7847L385.82 31.3928C385.128 31.4656 384.451 31.6816 383.789 32.0408C383.124 32.3762 382.507 32.8152 381.936 33.3578C381.39 33.898 380.913 34.5273 380.506 35.2458C380.12 35.938 379.86 36.6773 379.726 37.4636C379.637 37.7626 379.593 38.0327 379.594 38.2739L379.624 38.5603C379.698 39.4937 379.937 40.3856 380.34 41.2361C380.767 42.0841 381.263 42.9007 381.828 43.6858C382.415 44.4446 383.035 45.1758 383.688 45.8793C384.341 46.5828 384.944 47.2675 385.497 47.9334L373.897 49.1536L372.63 56.3818Z" fill="#FFE81F"/>
</svg>
