<svg width="432" height="128" viewBox="0 0 432 128" fill="none" xmlns="http://www.w3.org/2000/svg">
<path d="M18.2264 41.3582L410.226 3.60399C421.094 2.55729 430.5 11.1007 430.5 22.0188V66.1955C430.5 75.6913 423.311 83.6452 413.863 84.6014L21.8631 124.279C10.9648 125.382 1.5 116.827 1.5 105.873V59.773C1.5 50.2427 8.74005 42.2718 18.2264 41.3582Z" stroke="#FFE81F" stroke-width="3"/>
<path d="M22.4544 93.3976C24.5548 93.1767 26.5013 92.7548 28.294 92.1318C30.0866 91.5088 31.6739 90.6541 33.0559 89.5676C34.4591 88.4547 35.62 87.1018 36.5384 85.509C37.4543 83.8923 38.1108 81.9892 38.5079 79.7996L38.5004 79.728C38.5884 79.1879 38.6562 78.686 38.704 78.2225C38.7731 77.7325 38.8077 77.2583 38.8077 76.7998C38.8066 75.183 38.5203 73.8376 37.9488 72.7635C37.3773 71.6894 36.5646 70.8458 35.5106 70.2327C34.4567 69.6196 33.1723 69.2238 31.6573 69.0453C30.1662 68.8643 28.4897 68.8717 26.628 69.0675C24.5037 69.291 22.5465 69.7261 20.7564 70.3729C18.9637 70.9959 17.3777 71.8626 15.9982 72.973C14.6163 74.0595 13.4555 75.4124 12.5157 77.0316C11.5973 78.6244 10.9502 80.5024 10.5745 82.6656L10.582 82.7372C10.401 83.7698 10.3187 84.7075 10.3349 85.5504C10.3386 87.1911 10.6155 88.5616 11.1656 89.6621C11.7371 90.7362 12.5392 91.593 13.5717 92.2325C14.6257 92.8456 15.8982 93.2427 17.3893 93.4237C18.9043 93.6022 20.5926 93.5935 22.4544 93.3976ZM25.3895 76.2203C27.0603 76.0446 28.2373 76.2224 28.9207 76.7539C29.6279 77.2828 29.9783 78.0906 29.972 79.1772C29.9732 79.4184 29.9625 79.6608 29.9399 79.9045C29.9411 80.1457 29.9066 80.3907 29.8362 80.6394L29.8437 80.711C29.7092 81.4974 29.4944 82.2078 29.1991 82.8421C28.9277 83.474 28.5508 84.0204 28.0684 84.4814C27.6099 84.9399 27.0219 85.3155 26.3046 85.6081C25.5873 85.9008 24.7274 86.0998 23.7249 86.2053C22.0064 86.386 20.808 86.2346 20.1297 85.7509C19.4488 85.2433 19.1116 84.4462 19.1179 83.3596C19.1305 83.0204 19.1362 82.7302 19.135 82.489C19.1576 82.2453 19.1947 82.0242 19.2462 81.8258L19.2387 81.7542C19.3731 80.9678 19.5761 80.2587 19.8474 79.6268C20.1188 78.9949 20.4838 78.4498 20.9424 77.9913C21.4223 77.5064 22.0209 77.1177 22.7382 76.825C23.4555 76.5324 24.3393 76.3308 25.3895 76.2203ZM49.3977 79.8849L51.722 66.5365L43.201 67.4328L40.2339 84.6497C40.2225 84.7715 40.2112 84.8934 40.1999 85.0152C40.1886 85.1371 40.1773 85.2589 40.166 85.3808C40.1697 86.1044 40.3405 86.8104 40.6784 87.4988C41.0137 88.1634 41.4383 88.7582 41.952 89.2834C42.4871 89.7821 43.0719 90.1791 43.7063 90.4744C44.362 90.7433 45.0121 90.8438 45.6565 90.776L57.6503 89.5144C58.3425 89.4416 59.1088 89.1558 59.9493 88.6572C60.8136 88.156 61.6189 87.5525 62.3651 86.8465C63.1327 86.1142 63.7973 85.3203 64.3589 84.4649C64.9205 83.6094 65.2685 82.7885 65.403 82.0021L68.3702 64.7853L59.8492 65.6816L57.5248 79.03C57.4532 79.496 57.3552 79.9407 57.2308 80.3641C57.1064 80.7874 56.9173 81.1693 56.6635 81.5097C56.4336 81.8476 56.1258 82.1334 55.7401 82.367C55.352 82.5768 54.8714 82.7118 54.2986 82.772L51.5418 83.062C50.6587 83.1549 50.0658 83.0242 49.763 82.6699C49.4578 82.2918 49.3084 81.7887 49.3147 81.1606C49.3197 80.7498 49.3474 80.3246 49.3977 79.8849ZM75.3849 87.6489L76.5876 80.4998C76.6554 81.1443 76.8262 81.8503 77.1 82.6179C77.3713 83.3616 77.7104 84.0619 78.1173 84.7189C78.5482 85.3735 79.0406 85.925 79.5945 86.3735C80.146 86.7981 80.7477 87.0124 81.3997 87.0162L95.112 85.5738L96.3788 78.3456L86.8554 79.3474C88.9621 78.4983 90.5858 77.3019 91.7266 75.7581C92.8674 74.2143 93.5885 72.5819 93.8902 70.8609L94.2804 68.7203C94.313 68.5721 94.3338 68.4251 94.3426 68.2794C94.3514 68.1337 94.3602 67.9879 94.369 67.8422C94.3653 67.1186 94.2209 66.434 93.9357 65.7883C93.6481 65.1187 93.2619 64.5439 92.777 64.064C92.2896 63.5602 91.73 63.1727 91.0982 62.9013C90.4902 62.6274 89.852 62.5256 89.1837 62.5959L71.0319 64.5053L66.8997 88.5414L75.3849 87.6489ZM77.7601 73.7521L78.2503 70.8409L83.1194 70.3287C84.5515 70.1781 85.2625 70.5135 85.2524 71.3351L85.275 71.5499C85.1367 72.0712 84.8522 72.4631 84.4213 72.7257C84.0143 72.9857 83.4169 73.1571 82.6293 73.24L77.7601 73.7521ZM118.844 83.0774L119.936 76.5916L129.531 75.5823C130.366 75.4944 131.239 75.1854 132.148 74.6554C133.079 74.099 133.938 73.4294 134.724 72.6469C135.535 71.8618 136.23 71.0164 136.81 70.1107C137.388 69.1812 137.743 68.3113 137.875 67.501L138.401 64.586C138.434 64.4378 138.443 64.292 138.428 64.1488C138.436 64.0031 138.445 63.8574 138.454 63.7117C138.445 62.9404 138.283 62.1973 137.966 61.4825C137.673 60.7652 137.257 60.1333 136.717 59.5868C136.201 59.0378 135.578 58.6206 134.848 58.3354C134.142 58.0477 133.383 57.9465 132.572 58.0319L114.491 59.9338L110.359 83.9699L118.844 83.0774ZM121.178 69.4746L121.71 66.2694L127.474 65.663C128.285 65.5777 128.822 65.6299 129.083 65.8196C129.344 66.0093 129.471 66.2976 129.464 66.6845L129.43 67.0501C129.292 67.5714 129.057 67.9821 128.727 68.2824C128.42 68.5801 127.825 68.7754 126.942 68.8682L121.178 69.4746ZM153.572 75.8045L154.128 79.3659L162.505 78.4846L159.334 55.2168L145.729 56.6479L134.293 81.4523L143.029 80.5334L144.908 76.7159L153.572 75.8045ZM147.869 70.1059L151.604 62.256L152.774 69.5899L147.869 70.1059ZM164.482 78.2767L165.749 71.0485L177.349 69.8283C176.796 69.1625 176.194 68.4778 175.54 67.7742C174.887 67.0707 174.267 66.3396 173.681 65.5808C173.115 64.7956 172.619 63.979 172.192 63.131C171.789 62.2805 171.55 61.3886 171.476 60.4552L171.454 60.2404C171.453 59.9992 171.494 59.7053 171.578 59.3586C171.713 58.5722 171.973 57.8329 172.359 57.1408C172.766 56.4222 173.242 55.7929 173.789 55.2528C174.359 54.7101 174.977 54.2711 175.641 53.9358C176.303 53.5765 176.98 53.3605 177.673 53.2877L192.96 51.6796L191.693 58.9078L181.561 59.9736C182.179 60.8015 182.817 61.591 183.476 62.3423C184.134 63.0936 184.734 63.863 185.275 64.6507C185.814 65.4146 186.26 66.2123 186.613 67.0439C186.966 67.8756 187.145 68.7738 187.15 69.7386C187.148 69.9559 187.135 70.1745 187.11 70.3943C187.085 70.6141 187.061 70.8459 187.038 71.0896C186.92 71.8019 186.688 72.4658 186.343 73.0813C186.021 73.6943 185.62 74.2432 185.141 74.7281C184.661 75.213 184.111 75.6086 183.492 75.9151C182.896 76.2191 182.264 76.4062 181.596 76.4765L164.482 78.2767ZM195.606 51.4013L194.339 58.6294L202.001 57.8235L199.136 74.6315L207.621 73.7389L210.486 56.9309L218.148 56.125L219.415 48.8968L195.606 51.4013ZM252.681 60.3114L253.788 53.9688L241.615 55.2493L241.879 53.6288L255.018 52.2466L256.285 45.0184L234.66 47.2931L230.528 71.3293L252.153 69.0546L253.42 61.8264L240.28 63.2086L240.508 61.5918L252.681 60.3114ZM266.143 51.0764L264.545 60.6562L270.022 60.08C270.595 60.0197 271.076 59.8847 271.464 59.6749C271.85 59.4413 272.157 59.1555 272.387 58.8176C272.641 58.4772 272.83 58.0953 272.955 57.672C273.079 57.2487 273.177 56.804 273.249 56.3379L273.733 53.7169C273.756 53.4732 273.78 53.2414 273.805 53.0215C273.83 52.8017 273.843 52.5831 273.844 52.3658C273.851 51.7377 273.691 51.2478 273.364 50.896C273.037 50.5442 272.456 50.4123 271.621 50.5002L266.143 51.0764ZM254.793 68.7769L258.925 44.7407L277.506 42.7862C278.127 42.7209 278.754 42.8359 279.389 43.1311C280.045 43.4 280.629 43.797 281.143 44.3221C281.681 44.8448 282.118 45.4503 282.456 46.1387C282.792 46.8033 282.961 47.4974 282.965 48.2209C282.966 48.4621 282.942 48.6939 282.893 48.9163L281.127 59.3101C280.992 60.0965 280.644 60.9174 280.083 61.7728C279.521 62.6283 278.857 63.4221 278.089 64.1545C277.343 64.8604 276.537 65.464 275.673 65.9651C274.833 66.4638 274.066 66.7495 273.374 66.8223L254.793 68.7769ZM291.109 64.9568L282.624 65.8494L286.756 41.8132L295.241 40.9207L291.109 64.9568ZM297.874 40.6437L296.607 47.8719L304.269 47.0659L301.404 63.8739L309.889 62.9813L312.754 46.1734L320.416 45.3674L321.683 38.1392L297.874 40.6437ZM328.694 61.0032L320.209 61.8957L324.341 37.8596L332.827 36.967L328.694 61.0032ZM345.166 59.4515C347.266 59.2306 349.213 58.8086 351.006 58.1857C352.798 57.5627 354.386 56.708 355.768 55.6214C357.171 54.5085 358.332 53.1557 359.25 51.5628C360.166 49.9462 360.823 48.043 361.22 45.8535L361.212 45.7819C361.3 45.2417 361.368 44.7399 361.416 44.2763C361.485 43.7864 361.519 43.3122 361.519 42.8537C361.518 41.2369 361.232 39.8915 360.66 38.8174C360.089 37.7433 359.276 36.8996 358.222 36.2865C357.168 35.6734 355.884 35.2776 354.369 35.0991C352.878 34.9181 351.201 34.9255 349.34 35.1214C347.215 35.3448 345.258 35.78 343.468 36.4268C341.675 37.0498 340.089 37.9164 338.71 39.0268C337.328 40.1134 336.167 41.4662 335.227 43.0854C334.309 44.6782 333.662 46.5562 333.286 48.7194L333.294 48.791C333.113 49.8236 333.03 50.7614 333.047 51.6043C333.05 53.2449 333.327 54.6155 333.877 55.716C334.449 56.7901 335.251 57.6469 336.283 58.2864C337.337 58.8995 338.61 59.2965 340.101 59.4775C341.616 59.656 343.304 59.6473 345.166 59.4515ZM348.101 42.2742C349.772 42.0984 350.949 42.2763 351.632 42.8077C352.34 43.3366 352.69 44.1444 352.684 45.231C352.685 45.4722 352.674 45.7147 352.652 45.9584C352.653 46.1996 352.618 46.4445 352.548 46.6933L352.555 46.7649C352.421 47.5513 352.206 48.2616 351.911 48.896C351.639 49.5279 351.263 50.0743 350.78 50.5353C350.322 50.9938 349.734 51.3693 349.016 51.662C348.299 51.9546 347.439 52.1537 346.437 52.2591C344.718 52.4399 343.52 52.2884 342.841 51.8047C342.161 51.2972 341.823 50.5001 341.83 49.4135C341.842 49.0743 341.848 48.7841 341.847 48.5429C341.869 48.2992 341.906 48.0781 341.958 47.8796L341.95 47.808C342.085 47.0216 342.288 46.3125 342.559 45.6807C342.831 45.0488 343.196 44.5036 343.654 44.0451C344.134 43.5603 344.733 43.1715 345.45 42.8789C346.167 42.5862 347.051 42.3847 348.101 42.2742ZM386.95 54.8753L391.082 30.8391L382.597 31.7317L380.676 42.7209L374.183 32.6167L365.913 33.4867L361.781 57.5228L370.266 56.6303L372.147 45.609L378.715 55.7415L386.95 54.8753ZM389.611 54.5953L390.878 47.3671L402.478 46.1469C401.925 45.4811 401.323 44.7964 400.669 44.0929C400.016 43.3893 399.396 42.6582 398.81 41.8994C398.244 41.1142 397.748 40.2976 397.321 39.4496C396.918 38.5991 396.679 37.7072 396.605 36.7738L396.583 36.559C396.582 36.3178 396.623 36.0239 396.707 35.6772C396.842 34.8908 397.102 34.1515 397.488 33.4594C397.895 32.7408 398.371 32.1115 398.918 31.5714C399.488 31.0287 400.106 30.5897 400.77 30.2544C401.432 29.8951 402.109 29.6791 402.802 29.6063L418.089 27.9982L416.822 35.2264L406.69 36.2922C407.308 37.1201 407.946 37.9097 408.605 38.6609C409.263 39.4122 409.863 40.1817 410.404 40.9693C410.943 41.7332 411.389 42.5309 411.742 43.3625C412.095 44.1942 412.274 45.0924 412.279 46.0572C412.277 46.2745 412.264 46.4931 412.239 46.7129C412.214 46.9327 412.19 47.1645 412.167 47.4082C412.049 48.1205 411.817 48.7844 411.472 49.3999C411.15 50.0129 410.749 50.5618 410.27 51.0467C409.79 51.5316 409.24 51.9272 408.621 52.2337C408.025 52.5377 407.393 52.7248 406.725 52.7951L389.611 54.5953Z" fill="#FFE81F"/>
</svg>
